<svg fill="none" height="183" viewBox="0 0 276 183" width="276" xmlns="http://www.w3.org/2000/svg"><path d="m137.066 30.034v1.366l16.361 1.791c14.997 1.365 23.177-5.12 23.177-14.078v-15.01797c0-4.09499805-4.09-4.09499948-5.454-4.09499948-15.058 0-34.084 30.03396948-34.084 30.03396948z" fill="#aed5ef"/><path d="m137.066 30.034v.377c1.5-1.038 3.366-2.773 5.68-5.383 19.77-22.29799 33.783-7.964 33.783-4.607.039-.433.075-.865.075-1.308v-15.018c0-4.09499857-4.09-4.095-5.454-4.095-15.058 0-34.084 30.034-34.084 30.034zm0 0v-.001z" fill="#91b6d8"/><path d="m137.066 30.034v1.366l1.928.21c4.82-7.708 17.846-26.62697 29.119-26.71797 7.014-.058 8.416 10.01197 8.416 15.52897.039-.433.075-.865.075-1.308v-15.01797c0-4.09499805-4.09-4.09499948-5.454-4.09499948-15.058 0-34.084 30.03396948-34.084 30.03396948z" fill="#463c6c"/><path d="m137.066 35.495c1.363 8.191 10.777 24.493 16.02 28.242 6.561 4.694 9.033-2.217 9.033-2.217 4.516-2.304 15.849-12.373 9.031-20.564-6.815-8.191-34.084-9.557-34.084-9.557z" fill="#aed5ef"/><path d="m137.066 35.495c1.363 8.191 10.777 24.493 16.02 28.242 6.561 4.694 9.033-2.218 9.033-2.218 1.838-.938 4.808-3.164 7.223-6.027-16.066-3.546-32.276-24.093-32.276-24.093z" fill="#91b6d8"/><path d="m137.066 35.4953c1.363 8.1906 10.777 24.4925 16.02 28.2416 3.439 2.4611 5.746 1.7276 7.171.477-6.83-5.5095-15.011-15.0669-23.191-31.4486z" fill="#e0ddd2"/><path d="m153.086 63.737c6.561 4.694 9.033-2.218 9.033-2.218s-4.134-3.479-14.64-4.125c2.025 2.887 4.011 5.201 5.607 6.343z" fill="#463c6c"/><path d="m147.313 27.6936c-1.006.2657-.967 1.6964.044 1.9369 15.378 3.6422 25.671-2.0343 21.18-3.6919-1.48-.5469-3.353-.7643-5.405-.7642-5.348-.0003-11.905 1.4851-15.819 2.5192z" fill="#91b6d8"/><path d="m97.528 4.09503v15.01797c0 8.958 8.181 15.443 23.177 14.078l16.361-1.791v-1.366s-19.026-30.03396948-34.084-30.03396948c-1.365 0-5.454.00000143-5.454 4.09499948z" fill="#aed5ef"/><path d="m97.528 4.095v15.018c0 .443.036.875.075 1.308 0-3.357 14.013-17.69099 33.782 4.607 2.314 2.61 4.182 4.345 5.68 5.383v-.378h.001c-.113-.178-19.071-30.033-34.084-30.033-1.365 0-5.454.00000143-5.454 4.095zm39.538 25.938v.001z" fill="#91b6d8"/><path d="m97.528 4.09503v15.01797c0 .443.036.875.075 1.308 0-5.517 1.401-15.58697 8.416-15.52897 11.273.091 24.298 19.00997 29.119 26.71797l1.928-.21v-1.366s-19.026-30.03396948-34.084-30.03396948c-1.365 0-5.454.00000143-5.454 4.09499948z" fill="#463c6c"/><path d="m140.638 18.668c-.099.116-2.124 2.522-3.572 7.276-1.449-4.754-3.474-7.16-3.573-7.276-.243-.284-.675-.318-.959-.074-.287.244-.32.674-.077.962.026.031 2.637 3.156 3.942 9.256.067.314.346.54.667.54s.599-.226.667-.54c1.304-6.1 3.915-9.225 3.941-9.256.244-.288.211-.718-.076-.962-.128-.11-.285-.163-.441-.163-.193 0-.384.08-.519.237z" fill="#e3dcd3"/><path d="m102.982 40.956c-6.818 8.191 4.515 18.26 9.031 20.564 0 0 2.471 6.911 9.033 2.217 5.242-3.749 14.656-20.051 16.02-28.242v-4.096s-27.268 1.366-34.084 9.557z" fill="#aed5ef"/><path d="m104.791 55.492c2.413 2.863 5.383 5.089 7.222 6.027 0 0 2.471 6.912 9.033 2.218 5.242-3.749 14.656-20.051 16.02-28.242v-4.096s-16.211 20.547-32.275 24.093z" fill="#91b6d8"/><path d="m113.875 64.2142c1.424 1.2506 3.732 1.9841 7.17-.477 5.242-3.749 14.656-20.0503 16.02-28.2417l.001-2.7299c-8.181 16.3818-16.362 25.9391-23.191 31.4486z" fill="#e0ddd2"/><path d="m134.339 30.034v2.731c0 1.507 1.221 2.73 2.727 2.73 1.505 0 2.727-1.223 2.727-2.73v-2.731c0-1.508-1.222-2.73-2.727-2.73-1.506 0-2.727 1.222-2.727 2.73z" fill="#463c6c"/><path d="m112.013 61.519s2.471 6.912 9.033 2.218c1.597-1.142 3.581-3.456 5.606-6.343-10.506.646-14.639 4.125-14.639 4.125z" fill="#463c6c"/><path d="m105.595 25.9382c-4.491 1.6576 5.802 7.3331 21.18 3.6918 1.011-.2405 1.05-1.6712.045-1.9369-3.915-1.0341-10.472-2.5194-15.82-2.5191-2.052-.0001-3.925.2173-5.405.7642z" fill="#91b6d8"/><path d="m154.571 166.835c1.465 0 2.597.454 3.396 1.36.797.907 1.197 1.978 1.197 3.213 0 1.288-.4 2.365-1.197 3.233-.799.867-1.931 1.3-3.396 1.3-1.439 0-2.564-.431-3.375-1.295-.812-.863-1.217-1.936-1.217-3.218 0-1.23.405-2.297 1.217-3.199.811-.903 1.936-1.368 3.375-1.394zm11.501-5.534h-7.144v2.001c-.654-.784-1.472-1.393-2.453-1.825s-1.982-.686-3.003-.765c-.131-.026-.261-.039-.392-.039h-.393c-2.983 0-5.411 1.066-7.281 3.199-1.871 2.133-2.807 4.638-2.807 7.516 0 2.879.949 5.385 2.846 7.517 1.897 2.133 4.338 3.199 7.32 3.199h.315c.104 0 .209-.014.313-.04 1.074-.052 2.107-.307 3.102-.765.994-.457 1.779-1.158 2.354-2.1h.079v2.238h7.144zm-40.821 0h-7.144v20.136h7.144v-10.402c0-1.256.261-2.348.784-3.278.524-.928 1.505-1.393 2.944-1.393 1.23 0 2.054.347 2.473 1.04.418.694.654 1.447.707 2.257.025.262.039.524.039.785v10.991h7.144v-12.404c0-2.486-.583-4.5-1.747-6.045-1.165-1.543-3.107-2.315-5.829-2.315-1.387 0-2.597.235-3.631.706s-1.969 1.309-2.806 2.512h-.078zm-22.491 5.534c1.465 0 2.597.454 3.395 1.36.798.907 1.197 1.978 1.197 3.213 0 1.288-.399 2.365-1.197 3.233-.798.867-1.93 1.3-3.395 1.3-1.439 0-2.565-.431-3.376-1.295-.811-.863-1.216-1.936-1.216-3.218 0-1.23.405-2.297 1.216-3.199.811-.903 1.937-1.368 3.376-1.394zm0-6.162c-3.245 0-6.078.935-8.498 2.806s-3.631 4.521-3.631 7.949 1.217 6.064 3.65 7.908c2.434 1.846 5.26 2.768 8.479 2.768 3.244 0 6.077-.929 8.498-2.787 2.42-1.857 3.631-4.487 3.631-7.889 0-3.428-1.211-6.078-3.631-7.949-2.421-1.871-5.254-2.819-8.498-2.846zm-42.313.628h-7.144v20.136h7.144v-9.578-.902c0-.314.013-.642.039-.982.079-.942.327-1.806.746-2.59.418-.785 1.217-1.178 2.394-1.178 1.178 0 1.976.393 2.395 1.178.418.784.667 1.648.745 2.59.026.34.04.668.04.982v10.48h7.143v-9.578-.667c0-.235.013-.471.039-.707.053-1.02.295-1.962.727-2.826.432-.863 1.315-1.295 2.649-1.295 1.1 0 1.838.367 2.218 1.099.379.733.609 1.544.687 2.434.026.314.039.628.039.942v10.598h7.144v-12.796c0-2.329-.504-4.24-1.511-5.731-1.008-1.492-2.794-2.237-5.358-2.237-1.361 0-2.669.327-3.925.981s-2.225 1.609-2.905 2.865c-.733-1.334-1.694-2.309-2.885-2.924-1.191-.614-2.519-.922-3.984-.922-1.282 0-2.453.248-3.513.745-1.06.498-2.008 1.296-2.845 2.395h-.079zm-23.394 5.534c1.466 0 2.597.454 3.396 1.36.798.907 1.197 1.978 1.197 3.213 0 1.288-.399 2.365-1.197 3.233-.799.867-1.93 1.3-3.396 1.3-1.439 0-2.565-.431-3.375-1.295-.812-.863-1.217-1.936-1.217-3.218 0-1.23.405-2.297 1.217-3.199.81-.903 1.936-1.368 3.375-1.394zm11.501-5.534h-7.144v2.001c-.654-.784-1.471-1.393-2.453-1.825-.981-.432-1.982-.686-3.003-.765-.131-.026-.261-.039-.392-.039h-.393c-2.983 0-5.41 1.066-7.281 3.199s-2.806 4.638-2.806 7.516c0 2.879.948 5.385 2.845 7.517 1.897 2.133 4.338 3.199 7.321 3.199h.314c.104 0 .209-.014.314-.04 1.072-.052 2.106-.307 3.101-.765.994-.457 1.779-1.158 2.355-2.1h.078v2.238h7.144zm-40.86-3.572h1.491c1.152.053 2.204.324 3.16.813.955.489 1.433 1.461 1.433 2.916 0 1.439-.478 2.401-1.433 2.885-.956.484-2.008.752-3.16.805h-.353c-.131 0-.262-.014-.392-.04h-.746zm7.614 11.618c2.094-.366 3.696-1.341 4.809-2.924 1.112-1.583 1.668-3.395 1.668-5.436 0-3.166-.982-5.476-2.944-6.928-1.962-1.453-4.41-2.192-7.34-2.218h-11.501v29.596h7.694v-11.383h.078l7.262 11.383h9.577l-9.303-12.129z" fill="#9fc3e1"/><g fill="#463c6c"><path d="m253.681 161.301v12.168c0 3.323 1.033 5.593 3.101 6.81 2.067 1.217 4.605 1.825 7.615 1.825 3.035 0 5.58-.608 7.635-1.825 2.053-1.217 3.081-3.499 3.081-6.85v-12.128h-7.144v10.794c0 1.283-.229 2.33-.687 3.14-.458.812-1.42 1.217-2.885 1.217-1.466 0-2.428-.405-2.885-1.217-.458-.81-.687-1.871-.687-3.179v-10.755zm-51.143 7.144c.209-1.034.706-1.816 1.492-2.346.785-.529 1.701-.795 2.748-.795.967 0 1.838.289 2.609.864.773.576 1.25 1.335 1.434 2.277zm14.915 3.415c0-3.428-.96-6.149-2.884-8.165-1.923-2.015-4.639-3.022-8.145-3.022-3.271 0-5.946.955-8.027 2.865-2.08 1.91-3.12 4.54-3.12 7.89 0 3.48 1.112 6.13 3.336 7.948 2.224 1.819 4.998 2.728 8.321 2.728 2.303 0 4.442-.546 6.418-1.638 1.975-1.094 3.251-2.836 3.827-5.231h-6.869c-.393.654-.87 1.126-1.433 1.413-.563.288-1.223.432-1.982.432-1.466 0-2.577-.386-3.336-1.158-.76-.771-1.139-1.89-1.139-3.356h15.033v-.746zm-38.78-13.817h1.296c1.491 0 2.786.166 3.886.496 1.098.331 1.648 1.435 1.648 3.311 0 1.806-.576 2.86-1.727 3.16-1.152.301-2.42.438-3.807.412h-1.296zm-7.693 23.394h7.693v-9.774h4.358c3.348 0 5.932-.804 7.752-2.414 1.818-1.609 2.727-4.154 2.727-7.634 0-3.401-.994-5.875-2.982-7.418-1.99-1.544-4.58-2.33-7.773-2.356h-11.775z"/><path clip-rule="evenodd" d="m199.045 82.593c-10.07 41.817-35.162 34.514-50.618 58.713-13.719-34.799 15.592-46.958 28.314-62.96 3.556 4.076-2.034 10.967-6.265 17.722-7.658 12.224 1.153 9.998 9.019-.076 4.165-5.332 11.864-17.412 17.375-27.418 12.895-23.416 4.434 4.637 2.175 14.019z" fill-rule="evenodd"/><path clip-rule="evenodd" d="m76.068 82.593c10.07 41.817 35.162 34.514 50.618 58.713 13.718-34.799-15.592-46.958-28.314-62.96-3.556 4.076 2.034 10.967 6.266 17.722 7.656 12.224-1.154 9.998-9.02-.076-4.165-5.332-11.865-17.412-17.375-27.418-12.895-23.416-4.434 4.637-2.175 14.019z" fill-rule="evenodd"/><path d="m229.183 167.856h4.043v-5.888h-4.043v-6.044h-7.145v6.044h-2.315v5.888h2.315v14.249h7.145z"/><path d="m234.263 171.624c0 3.036 1.079 5.542 3.238 7.517 2.159 1.976 4.73 2.963 7.713 2.963.863 0 1.721-.092 2.571-.274.85-.184 1.668-.472 2.454-.864v-6.006c-.368.341-.792.622-1.276.845-.485.222-.975.372-1.472.451-.131.026-.269.046-.413.059-.143.013-.281.019-.412.019-1.465 0-2.669-.464-3.611-1.393-.941-.928-1.413-2.113-1.413-3.552 0-1.387.477-2.552 1.434-3.494.954-.942 2.112-1.413 3.473-1.413.68 0 1.334.138 1.962.413.628.274 1.203.595 1.728.961v-6.045.04c-.707-.393-1.459-.687-2.257-.884-.799-.196-1.616-.294-2.453-.294-3.167 0-5.836 1.014-8.008 3.042s-3.258 4.665-3.258 7.909z"/></g></svg>