<svg fill="none" height="101" viewBox="0 0 117 101" width="117" xmlns="http://www.w3.org/2000/svg"><path d="m58.5001 44.707v2.0333l24.2075 2.666c22.1894 2.0318 34.2924-7.6214 34.2924-20.9558v-22.35491c0-6.09558787-6.051-6.09559-8.07-6.09559-22.2792 0-50.4299 44.707-50.4299 44.707z" fill="#aed5ef"/><path d="m58.5001 44.7069v.5613c2.2194-1.5452 4.9803-4.1278 8.4041-8.0129 29.2514-33.19155 49.9848-11.8547 49.9848-6.8577.058-.6445.111-1.2876.111-1.947v-22.35501c0-6.09558787-6.051-6.09559-8.07-6.09559-22.2792 0-50.4299 44.7069-50.4299 44.7069zm0 0v-.0014z" fill="#91b6d8"/><path d="m58.5001 44.707v2.0333l2.8527.3126c7.1316-11.4737 26.4047-39.63548 43.0842-39.77094 10.378-.08634 12.452 14.90334 12.452 23.11564.058-.6446.111-1.2877.111-1.9471v-22.35491c0-6.09558787-6.051-6.09559-8.07-6.09559-22.2792 0-50.4299 44.707-50.4299 44.707z" fill="#463c6c"/><path d="m58.5001 52.836c2.0167 12.1927 15.9455 36.4589 23.703 42.0395 9.7076 6.9875 13.3651-3.3001 13.3651-3.3001 6.6818-3.4297 23.4498-18.4178 13.3618-30.6105-10.083-12.1926-50.4299-14.226-50.4299-14.226z" fill="#aed5ef"/><path d="m58.5001 52.836c2.0167 12.1927 15.9455 36.4589 23.703 42.0395 9.7076 6.9875 13.3651-3.3016 13.3651-3.3016 2.7195-1.3963 7.1138-4.7098 10.6868-8.9715-23.7708-5.2784-47.7549-35.8635-47.7549-35.8635z" fill="#91b6d8"/><path d="m58.5001 52.8363c2.0174 12.1922 15.9453 36.4582 23.7034 42.0389 5.0875 3.6635 8.5016 2.5717 10.6093.7101-10.1047-8.2011-22.2103-22.4277-34.3128-46.8126z" fill="#e0ddd2"/><path d="m82.2031 94.8755c9.7076 6.9875 13.3652-3.3017 13.3652-3.3017s-6.1166-5.1786-21.6612-6.1402c2.9962 4.2974 5.9346 7.7419 8.296 9.4419z" fill="#463c6c"/><path d="m73.661 41.2232c-1.4878.3956-1.43 2.5252.0662 2.8831 22.7523 5.4217 37.9818-3.0281 31.3378-5.4955-2.19-.8141-4.962-1.1376-7.9981-1.1375-7.9132-.0004-17.6147 2.2106-23.4059 3.7499z" fill="#91b6d8"/><path d="m0 6.09559v22.35491c0 13.3344 12.1045 22.9876 34.2924 20.9558l24.2075-2.666v-2.0333s-28.1506-44.707-50.43024-44.707c-2.01963 0-8.06966.00000213-8.06966 6.09559z" fill="#aed5ef"/><path d="m0 6.09559v22.35501c0 .6594.0532606 1.3025.110965 1.947 0-4.997 20.733435-26.33385 49.983435 6.8577 3.4238 3.8851 6.1876 6.4677 8.404 8.0129v-.5627h.0015c-.1672-.265-28.2172-44.7055-50.43024-44.7055-2.01963 0-8.06966.00000213-8.06966 6.09559zm58.4999 38.60991v.0014z" fill="#91b6d8"/><path d="m0 6.09559v22.35491c0 .6594.0532606 1.3025.110965 1.9471 0-8.2123 2.072905-23.20198 12.452235-23.11564 16.6794.13546 35.951 28.29724 43.0841 39.77094l2.8526-.3126v-2.0333s-28.1506-44.707-50.43024-44.707c-2.01963 0-8.06966.00000213-8.06966 6.09559z" fill="#463c6c"/><path d="m63.785 27.7882c-.1465.1726-3.1427 3.7541-5.2851 10.8306-2.1439-7.0765-5.1401-10.658-5.2866-10.8306-.3595-.4228-.9987-.4734-1.4189-.1101-.4247.3632-.4735 1.0032-.1139 1.4319.0384.0461 3.9017 4.6979 5.8325 13.778.0991.4674.5119.8038.9869.8038.4749 0 .8862-.3364.9869-.8038 1.9293-9.0801 5.7926-13.7319 5.831-13.778.361-.4287.3122-1.0687-.1124-1.4319-.1894-.1638-.4217-.2427-.6525-.2427-.2856 0-.5682.1191-.7679.3528z" fill="#e3dcd3"/><path d="m8.06971 60.9649c-10.08783 12.1927 6.68029 27.1808 13.36209 30.6105 0 0 3.6561 10.2876 13.3652 3.3001 7.756-5.5806 21.6848-29.8468 23.703-42.0395v-6.0971s-40.3454 2.0334-50.43029 14.226z" fill="#aed5ef"/><path d="m10.7465 82.6024c3.5702 4.2617 7.9646 7.5752 10.6855 8.9715 0 0 3.6561 10.2891 13.3652 3.3016 7.756-5.5806 21.6848-29.8468 23.7029-42.0395v-6.0971s-23.9855 30.5851-47.7536 35.8635z" fill="#91b6d8"/><path d="m24.1866 95.5857c2.1077 1.8616 5.5218 2.9534 10.6094-.71 7.7559-5.5805 21.685-29.8457 23.7033-42.039l.0002-4.0636c-12.1046 24.3851-24.2082 38.6116-34.3129 46.8126z" fill="#e0ddd2"/><path d="m54.4652 44.707v4.0653c0 2.2432 1.8066 4.0636 4.0348 4.0636 2.2268 0 4.0349-1.8204 4.0349-4.0636v-4.0653c0-2.2447-1.8081-4.0637-4.0349-4.0637-2.2282 0-4.0348 1.819-4.0348 4.0637z" fill="#463c6c"/><path d="m21.432 91.5738s3.6561 10.2892 13.3652 3.3017c2.3629-1.7 5.2983-5.1445 8.2945-9.4419-15.5445.9616-21.6597 6.1402-21.6597 6.1402z" fill="#463c6c"/><path d="m11.9356 38.6101c-6.64463 2.4674 8.5853 10.9156 31.3374 5.4954 1.4963-.358 1.554-2.4876.0677-2.883-5.7928-1.5394-15.4943-3.7504-23.4074-3.7499-3.0361-.0002-5.8078.3234-7.9977 1.1375z" fill="#91b6d8"/></svg>